{"title":"X Men Apocalypse 2016 720p New HC HDRIP X264 AC3 TiTAN","uid":15564398,"size":2792898386,"categoryP":"video","categoryS":"hd___movies","magnet":"?xt=urn:btih:fa8af2eb9ab5feec6277c407775620551db1d07d&amp;dn=X+Men+Apocalypse+2016+720p+New+HC+HDRIP+X264+AC3+TiTAN&amp;tr=udp%3A%2F%2Ftracker.leechers-paradise.org%3A6969&amp;tr=udp%3A%2F%2Fzer0day.ch%3A1337&amp;tr=udp%3A%2F%2Fopen.demonii.com%3A1337&amp;tr=udp%3A%2F%2Ftracker.coppersurfer.tk%3A6969&amp;tr=udp%3A%2F%2Fexodus.desync.com%3A6969","seeders":2,"leechers":0,"uploader":"loverulz","files":2,"time":1471176246,"description":"X Men Apocalypse 2016 720p New HC HDRIP X264 AC3 TiTAN\r\n \nhttp://www.imdb.com/title/tt3385516/\r\n\r\nSource: 1080p MP$BA\r\n\r\nNice new source here.. much better than the webrip that is out\r\ndoes still have subs.. Enjoy or wait for retail\r\n\r\nGeneral\r\n\r\nFormat: Matroska\r\nFormat version: Version 2\r\nFile size: 2.57 GiB\r\nDuration: 2h 18mn\r\nOverall bit rate mode: Variable\r\nOverall bit rate: 2 661 Kbps\r\n\r\nVideo\r\n\r\nID: 1\r\nFormat: AVC\r\nFormat/Info: Advanced Video Codec\r\nFormat profile:   \r\nFormat settings, CABAC: Yes\r\nFormat settings, ReFrames: 3 frames\r\nCodec ID: V_MPEG4/ISO/AVC\r\nDuration: 2h 18mn\r\nBit rate mode: Variable\r\nBit rate: 2 416 Kbps\r\nMaximum bit rate: 40.0 Mbps\r\nWidth: 1 280 pixels\r\nHeight: 528 pixels\r\nDisplay aspect ratio: 2.40:1\r\nFrame rate mode: Constant\r\nFrame rate: 25.000 fps\r\nColor space: YUV\r\nChroma subsampling: 4:2:0\r\nBit depth: 8 bits\r\nScan type: Progressive\r\nBits/(Pixel*Frame): 0.143\r\nStream size: 2.33 GiB (91%)\r\nratio=1.40 / aq=1:1.00\r\nDefault: Yes\r\nForced: No\r\nColor primaries: BT.709\r\nTransfer characteristics: BT.709\r\nMatrix coefficients: BT.709\r\n\r\nAudio\r\n\r\nID: 2\r\nFormat: AC-3\r\nFormat/Info: Audio Coding 3\r\nMode extension: CM (complete main)\r\nFormat settings, Endianness: Big\r\nCodec ID: A_AC3\r\nDuration: 2h 18mn\r\nBit rate mode: Constant\r\nBit rate: 192 Kbps\r\nChannel(s): 2 channels\r\nChannel positions: Front: L R\r\nSampling rate: 44.1 KHz\r\nBit depth: 16 bits\r\nCompression mode: Lossy\r\nStream size: 190 MiB (7%)\r\nLanguage: English\r\nDefault: Yes\r\n \nhttps://postimg.org/image/6frtk077z/ \nhttps://postimg.org/image/wtl74pjof/","torrent":{"xt":"urn:btih:fa8af2eb9ab5feec6277c407775620551db1d07d","amp;dn":"X+Men+Apocalypse+2016+720p+New+HC+HDRIP+X264+AC3+TiTAN","amp;tr":["udp%3A%2F%2Ftracker.leechers-paradise.org%3A6969","udp%3A%2F%2Fzer0day.ch%3A1337","udp%3A%2F%2Fopen.demonii.com%3A1337","udp%3A%2F%2Ftracker.coppersurfer.tk%3A6969","udp%3A%2F%2Fexodus.desync.com%3A6969"],"infoHash":"fa8af2eb9ab5feec6277c407775620551db1d07d","infoHashBuffer":{"type":"Buffer","data":[250,138,242,235,154,181,254,236,98,119,196,7,119,86,32,85,29,177,208,125]},"announce":[],"urlList":[]}}